<?xml version="1.0" encoding="utf-8" ?>
<svg baseProfile="tiny" height="1024px" version="1.2" width="1024px" xmlns="http://www.w3.org/2000/svg" xmlns:ev="http://www.w3.org/2001/xml-events" xmlns:xlink="http://www.w3.org/1999/xlink"><defs /><path d="M 595,710 Z" fill="red" /><path d="M 380,710 Z" fill="red" /><path d="M 379,697 Z" fill="red" /><path d="M 379,685 L 379,686 Z" fill="red" /><path d="M 379,678 L 378,679 Z" fill="red" /><path d="M 745,676 Z" fill="red" /><path d="M 378,676 L 379,676 Z" fill="red" /><path d="M 322,676 Z" fill="red" /><path d="M 746,673 Z" fill="red" /><path d="M 740,673 Z" fill="red" /><path d="M 722,673 Z" fill="red" /><path d="M 655,672 L 655,673 Z" fill="red" /><path d="M 321,661 Z" fill="red" /><path d="M 321,658 L 321,659 Z" fill="red" /><path d="M 320,655 Z" fill="red" /><path d="M 321,650 L 321,653 Z" fill="red" /><path d="M 655,647 Z" fill="red" /><path d="M 320,647 L 320,648 L 321,648 Z" fill="red" /><path d="M 319,645 Z" fill="red" /><path d="M 312,645 Z" fill="red" /><path d="M 304,645 Z" fill="red" /><path d="M 257,645 Z" fill="red" /><path d="M 232,645 Z" fill="red" /><path d="M 225,645 Z" fill="red" /><path d="M 650,643 Z" fill="red" /><path d="M 594,643 L 594,644 Z" fill="red" /><path d="M 595,640 Z" fill="red" /><path d="M 225,640 L 225,641 Z" fill="red" /><path d="M 227,636 Z" fill="red" /><path d="M 227,633 Z" fill="red" /><path d="M 227,629 Z" fill="red" /><path d="M 227,627 Z" fill="red" /><path d="M 227,624 L 227,625 Z" fill="red" /><path d="M 227,621 Z" fill="red" /><path d="M 225,612 Z" fill="red" /><path d="M 257,604 Z" fill="red" /><path d="M 257,600 Z" fill="red" /><path d="M 257,595 L 257,596 Z" fill="red" /><path d="M 257,592 Z" fill="red" /><path d="M 257,588 Z" fill="red" /><path d="M 304,579 Z" fill="red" /><path d="M 655,578 Z" fill="red" /><path d="M 321,573 L 320,574 L 321,574 Z" fill="red" /><path d="M 321,567 L 321,569 Z" fill="red" /><path d="M 321,564 Z" fill="red" /><path d="M 320,562 L 321,562 Z" fill="red" /><path d="M 320,559 L 321,560 L 321,559 Z" fill="red" /><path d="M 321,557 Z" fill="red" /><path d="M 321,554 L 320,555 Z" fill="red" /><path d="M 655,551 Z" fill="red" /><path d="M 321,550 Z" fill="red" /><path d="M 687,537 Z" fill="red" /><path d="M 687,535 Z" fill="red" /><path d="M 320,534 Z" fill="red" /><path d="M 687,529 Z" fill="red" /><path d="M 321,525 L 321,526 L 320,527 L 321,527 Z" fill="red" /><path d="M 687,524 Z" fill="red" /><path d="M 321,522 Z" fill="red" /><path d="M 493,521 Z" fill="red" /><path d="M 442,521 Z" fill="red" /><path d="M 421,520 Z" fill="red" /><path d="M 321,519 L 321,520 Z" fill="red" /><path d="M 291,518 Z" fill="red" /><path d="M 497,517 Z" fill="red" /><path d="M 499,512 Z" fill="red" /><path d="M 499,506 L 499,509 Z" fill="red" /><path d="M 499,500 L 499,503 Z" fill="red" /><path d="M 686,499 Z" fill="red" /><path d="M 499,498 Z" fill="red" /><path d="M 712,491 Z" fill="red" /><path d="M 688,491 Z" fill="red" /><path d="M 521,488 L 522,488 Z" fill="red" /><path d="M 518,488 Z" fill="red" /><path d="M 502,488 L 503,488 Z" fill="red" /><path d="M 400,488 Z" fill="red" /><path d="M 397,488 Z" fill="red" /><path d="M 395,488 Z" fill="red" /><path d="M 382,482 Z" fill="red" /><path d="M 257,461 Z" fill="red" /><path d="M 382,459 Z" fill="red" /><path d="M 231,458 L 230,459 L 231,459 Z" fill="red" /><path d="M 382,456 Z" fill="red" /><path d="M 225,451 Z" fill="red" /><path d="M 717,431 Z" fill="red" /><path d="M 224,431 Z" fill="red" /><path d="M 730,428 Z" fill="red" /><path d="M 555,416 Z" fill="red" /><path d="M 555,413 Z" fill="red" /><path d="M 196,412 Z" fill="red" /><path d="M 774,399 Z" fill="red" /><path d="M 750,399 L 751,399 Z" fill="red" /><path d="M 324,398 Z" fill="red" /><path d="M 172,398 Z" fill="red" /><path d="M 166,394 L 166,395 Z" fill="red" /><path d="M 555,392 Z" fill="red" /><path d="M 321,392 Z" fill="red" /><path d="M 166,391 L 165,392 Z" fill="red" /><path d="M 555,389 L 555,390 Z" fill="red" /><path d="M 555,384 Z" fill="red" /><path d="M 165,377 Z" fill="red" /><path d="M 555,373 Z" fill="red" /><path d="M 132,365 Z" fill="red" /><path d="M 588,363 Z" fill="red" /><path d="M 132,358 Z" fill="red" /><path d="M 227,357 L 227,358 Z" fill="red" /><path d="M 227,351 L 227,352 Z" fill="red" /><path d="M 588,348 Z" fill="red" /><path d="M 134,347 Z" fill="red" /><path d="M 807,346 L 807,349 Z" fill="red" /><path d="M 588,342 Z" fill="red" /><path d="M 134,342 L 134,344 Z" fill="red" /><path d="M 227,341 L 227,345 Z" fill="red" /><path d="M 807,340 L 807,344 Z" fill="red" /><path d="M 227,339 Z" fill="red" /><path d="M 807,338 Z" fill="red" /><path d="M 134,338 L 134,339 Z" fill="red" /><path d="M 227,337 Z" fill="red" /><path d="M 590,336 L 590,338 Z" fill="red" /><path d="M 649,324 Z" fill="red" /><path d="M 649,316 Z" fill="red" /><path d="M 649,311 Z" fill="red" /><path d="M 649,309 Z" fill="red" /><path d="M 662,304 Z" fill="red" /><path d="M 147,304 Z" fill="red" /><path d="M 136,276 L 136,278 Z" fill="red" /><path d="M 773,272 Z" fill="red" /><path d="M 757,272 L 758,272 Z" fill="red" /><path d="M 739,272 Z" fill="red" /><path d="M 736,272 Z" fill="red" /><path d="M 734,272 Z" fill="red" /><path d="M 114,272 Z" fill="red" /><path d="M 106,272 Z" fill="red" /><path d="M 928,246 Z" fill="red" /><path d="M 917,246 Z" fill="red" /><path d="M 905,246 L 906,246 Z" fill="red" /><path d="M 901,246 Z" fill="red" /><path d="M 102,243 Z" fill="red" /><path d="M 833,242 L 834,242 Z" fill="red" /><path d="M 836,228 L 836,230 Z" fill="red" /><path d="M 956,214 Z" fill="red" /><path d="M 953,214 Z" fill="red" /><path d="M 940,214 Z" fill="red" /><path d="M 933,214 Z" fill="red" /><path d="M 959,211 Z" fill="red" /><path d="M 892,210 Z" fill="red" /><path d="M 839,210 Z" fill="red" /><path d="M 959,209 Z" fill="red" /><path d="M 959,204 Z" fill="red" /><path d="M 959,202 Z" fill="red" /><path d="M 957,188 L 957,189 Z" fill="red" /><path d="M 959,183 Z" fill="red" /><path d="M 897,182 L 896,183 L 896,192 L 895,193 L 896,194 L 896,195 L 895,196 L 896,197 L 896,198 L 895,199 L 895,200 L 896,201 L 895,202 L 895,204 L 896,205 L 896,209 L 894,211 L 895,212 L 894,213 L 889,213 L 888,212 L 887,213 L 886,212 L 885,213 L 864,213 L 863,212 L 862,213 L 854,213 L 853,212 L 852,213 L 837,213 L 838,214 L 837,215 L 836,215 L 836,218 L 837,219 L 836,220 L 836,226 L 836,221 L 837,220 L 838,221 L 838,231 L 837,232 L 836,232 L 836,243 L 834,245 L 782,245 L 781,244 L 780,245 L 779,245 L 778,246 L 777,245 L 777,271 L 776,272 L 776,273 L 775,274 L 766,274 L 765,273 L 763,273 L 762,272 L 761,272 L 759,274 L 753,274 L 752,273 L 751,273 L 750,274 L 713,274 L 712,275 L 712,279 L 712,278 L 713,277 L 714,278 L 714,303 L 713,304 L 712,304 L 712,305 L 711,306 L 704,306 L 703,305 L 702,306 L 701,306 L 700,305 L 698,305 L 697,306 L 696,305 L 696,306 L 695,307 L 693,307 L 692,306 L 688,306 L 687,305 L 686,306 L 672,306 L 671,307 L 669,307 L 668,306 L 665,306 L 664,307 L 663,306 L 656,306 L 654,304 L 655,305 L 653,307 L 652,306 L 651,306 L 651,334 L 649,336 L 648,336 L 647,335 L 641,335 L 640,336 L 639,335 L 635,335 L 634,336 L 633,335 L 618,335 L 617,336 L 616,336 L 615,335 L 610,335 L 609,336 L 608,335 L 604,335 L 603,336 L 602,335 L 594,335 L 593,336 L 592,335 L 592,347 L 591,348 L 590,347 L 590,341 L 590,365 L 589,366 L 585,366 L 584,365 L 583,366 L 563,366 L 562,365 L 561,366 L 560,365 L 559,366 L 557,366 L 557,427 L 556,428 L 540,428 L 539,429 L 534,429 L 533,428 L 529,428 L 528,429 L 528,467 L 527,468 L 528,469 L 528,483 L 527,484 L 528,485 L 528,486 L 526,488 L 524,488 L 527,488 L 528,489 L 527,490 L 519,490 L 518,491 L 516,491 L 515,490 L 513,490 L 512,489 L 510,489 L 511,489 L 512,490 L 511,491 L 508,491 L 507,490 L 508,489 L 507,490 L 504,490 L 503,491 L 501,491 L 500,490 L 500,492 L 499,493 L 499,495 L 500,495 L 501,496 L 501,517 L 500,518 L 499,517 L 499,515 L 499,519 L 500,520 L 500,521 L 498,523 L 495,523 L 494,524 L 493,523 L 492,523 L 491,524 L 490,523 L 472,523 L 471,524 L 470,524 L 469,523 L 468,524 L 464,524 L 463,523 L 456,523 L 455,524 L 453,524 L 452,523 L 448,523 L 447,524 L 446,524 L 445,523 L 444,524 L 441,524 L 440,523 L 432,523 L 431,524 L 430,524 L 429,523 L 424,523 L 423,524 L 422,523 L 417,523 L 416,524 L 414,524 L 413,523 L 413,490 L 412,489 L 411,489 L 410,490 L 409,490 L 408,489 L 409,488 L 407,490 L 406,490 L 405,491 L 404,490 L 400,490 L 399,491 L 396,491 L 395,490 L 393,490 L 392,489 L 393,488 L 391,490 L 390,490 L 389,489 L 388,489 L 387,490 L 384,490 L 382,488 L 381,489 L 380,488 L 380,473 L 381,472 L 380,471 L 380,464 L 381,463 L 380,462 L 380,457 L 379,458 L 377,456 L 376,457 L 375,456 L 374,457 L 362,457 L 361,456 L 360,457 L 359,456 L 358,457 L 353,457 L 351,455 L 351,444 L 352,443 L 351,442 L 351,441 L 352,440 L 351,439 L 351,436 L 352,435 L 351,434 L 351,429 L 325,429 L 324,428 L 323,429 L 322,428 L 322,400 L 321,399 L 322,398 L 320,396 L 320,395 L 320,396 L 319,397 L 289,397 L 288,396 L 288,366 L 248,366 L 247,365 L 246,366 L 228,366 L 226,364 L 226,360 L 225,359 L 225,336 L 226,335 L 168,335 L 167,334 L 168,333 L 167,332 L 168,331 L 168,329 L 167,328 L 168,327 L 168,325 L 167,324 L 168,323 L 167,322 L 168,321 L 167,320 L 167,319 L 168,318 L 168,311 L 167,310 L 167,309 L 168,308 L 167,307 L 167,305 L 166,304 L 167,305 L 166,306 L 160,306 L 159,305 L 159,304 L 159,306 L 158,307 L 156,307 L 155,306 L 153,306 L 151,304 L 150,304 L 151,304 L 152,305 L 152,306 L 151,307 L 149,307 L 148,306 L 144,306 L 143,307 L 141,307 L 140,306 L 137,306 L 136,305 L 136,303 L 135,302 L 136,301 L 136,300 L 135,299 L 135,298 L 136,297 L 135,296 L 135,292 L 136,291 L 135,290 L 135,287 L 136,286 L 136,284 L 135,283 L 136,282 L 135,281 L 135,280 L 134,279 L 134,274 L 129,274 L 128,273 L 127,274 L 126,273 L 124,273 L 123,274 L 122,273 L 121,274 L 120,273 L 119,273 L 118,272 L 118,273 L 117,274 L 110,274 L 109,273 L 108,274 L 104,274 L 103,273 L 103,245 L 73,245 L 72,244 L 70,246 L 71,247 L 71,251 L 70,252 L 71,253 L 70,254 L 70,255 L 71,256 L 70,257 L 71,258 L 70,259 L 70,260 L 71,261 L 70,262 L 70,263 L 71,264 L 71,265 L 70,266 L 71,267 L 71,269 L 70,270 L 70,271 L 71,272 L 70,273 L 71,274 L 71,275 L 70,276 L 70,277 L 71,278 L 71,279 L 70,280 L 71,281 L 71,283 L 70,284 L 71,285 L 71,291 L 70,292 L 71,293 L 71,294 L 70,295 L 70,296 L 71,297 L 71,298 L 70,299 L 71,300 L 71,301 L 70,302 L 70,303 L 71,303 L 73,305 L 76,305 L 77,304 L 78,304 L 79,305 L 80,304 L 81,304 L 82,305 L 85,305 L 86,304 L 88,304 L 89,305 L 90,305 L 91,304 L 92,304 L 93,305 L 94,305 L 95,304 L 96,305 L 97,304 L 98,304 L 99,305 L 100,305 L 101,304 L 103,304 L 105,306 L 105,308 L 104,309 L 105,310 L 104,311 L 105,312 L 105,322 L 104,323 L 105,324 L 104,325 L 104,326 L 105,327 L 105,333 L 106,334 L 106,335 L 134,335 L 136,337 L 136,365 L 135,366 L 134,366 L 149,366 L 150,367 L 151,366 L 157,366 L 158,367 L 159,366 L 160,367 L 161,366 L 165,366 L 166,367 L 166,368 L 168,370 L 168,396 L 167,397 L 166,397 L 167,398 L 166,399 L 167,398 L 168,398 L 167,397 L 168,396 L 175,396 L 176,397 L 176,398 L 180,398 L 181,397 L 182,398 L 183,397 L 184,398 L 185,397 L 186,398 L 187,398 L 188,399 L 189,398 L 190,399 L 191,399 L 192,398 L 193,399 L 192,398 L 193,397 L 194,397 L 196,399 L 196,398 L 197,397 L 199,399 L 198,400 L 198,401 L 199,402 L 198,403 L 199,404 L 198,405 L 199,406 L 198,407 L 198,411 L 199,412 L 198,413 L 198,416 L 199,417 L 199,418 L 198,419 L 199,420 L 199,422 L 198,423 L 199,423 L 200,424 L 199,425 L 197,425 L 198,425 L 199,426 L 200,425 L 226,425 L 228,427 L 228,428 L 226,430 L 225,429 L 225,428 L 225,429 L 227,431 L 227,434 L 228,435 L 227,436 L 227,437 L 228,438 L 227,439 L 228,440 L 227,441 L 227,442 L 228,443 L 227,444 L 227,446 L 228,447 L 228,450 L 227,451 L 227,452 L 228,453 L 228,454 L 227,455 L 229,457 L 230,456 L 238,456 L 239,457 L 240,456 L 244,456 L 245,457 L 247,457 L 248,456 L 249,457 L 250,457 L 251,456 L 252,456 L 253,457 L 258,457 L 259,458 L 259,477 L 258,478 L 258,479 L 259,480 L 259,488 L 260,488 L 261,489 L 262,488 L 263,489 L 264,489 L 265,488 L 266,489 L 267,488 L 268,489 L 272,489 L 273,488 L 276,488 L 277,489 L 278,489 L 279,488 L 280,489 L 282,489 L 283,488 L 284,489 L 288,489 L 289,490 L 289,492 L 288,493 L 289,494 L 288,495 L 288,498 L 289,499 L 289,501 L 288,502 L 289,503 L 289,511 L 288,512 L 288,513 L 289,514 L 289,516 L 288,517 L 289,518 L 289,516 L 290,515 L 292,515 L 293,516 L 294,516 L 295,515 L 300,515 L 301,516 L 302,515 L 303,515 L 304,516 L 305,516 L 306,515 L 320,515 L 321,516 L 321,517 L 322,516 L 323,517 L 323,529 L 322,530 L 322,531 L 323,532 L 323,543 L 322,544 L 321,543 L 321,536 L 321,542 L 320,543 L 321,543 L 322,544 L 321,545 L 321,548 L 322,548 L 323,549 L 323,576 L 322,577 L 321,576 L 322,577 L 321,578 L 321,579 L 322,580 L 320,582 L 317,582 L 316,581 L 315,582 L 314,581 L 313,581 L 312,582 L 311,581 L 310,581 L 309,582 L 302,582 L 301,581 L 297,581 L 296,582 L 295,581 L 292,581 L 291,582 L 290,581 L 289,581 L 288,582 L 287,581 L 285,581 L 284,582 L 283,582 L 282,581 L 279,581 L 278,582 L 277,581 L 265,581 L 264,582 L 262,582 L 261,581 L 260,581 L 259,582 L 259,607 L 258,608 L 257,607 L 257,608 L 258,608 L 259,609 L 259,611 L 258,612 L 255,612 L 254,613 L 249,613 L 248,612 L 247,612 L 248,613 L 247,614 L 246,614 L 244,612 L 243,613 L 229,613 L 228,612 L 228,613 L 229,614 L 229,642 L 228,643 L 321,643 L 322,644 L 321,645 L 322,644 L 323,645 L 323,663 L 322,664 L 321,663 L 321,664 L 322,665 L 321,666 L 321,668 L 322,669 L 322,670 L 321,671 L 320,670 L 321,671 L 321,672 L 322,673 L 322,674 L 323,673 L 335,673 L 336,674 L 337,673 L 373,673 L 374,674 L 380,674 L 381,675 L 381,705 L 382,706 L 383,705 L 399,705 L 400,706 L 401,705 L 407,705 L 408,706 L 409,705 L 422,705 L 423,706 L 424,706 L 425,705 L 439,705 L 440,706 L 440,707 L 441,708 L 441,709 L 440,710 L 440,711 L 441,712 L 441,713 L 440,714 L 440,716 L 441,717 L 441,722 L 440,723 L 441,724 L 441,727 L 440,728 L 440,729 L 441,730 L 441,733 L 442,734 L 443,734 L 444,735 L 591,735 L 593,733 L 593,732 L 592,731 L 592,729 L 593,728 L 593,727 L 592,726 L 593,725 L 592,724 L 592,720 L 593,719 L 593,717 L 592,716 L 592,713 L 593,712 L 592,711 L 592,706 L 593,705 L 594,705 L 595,706 L 596,705 L 600,705 L 601,706 L 602,705 L 603,706 L 604,705 L 614,705 L 615,706 L 617,706 L 618,705 L 619,706 L 620,705 L 621,705 L 622,706 L 623,705 L 624,706 L 625,705 L 630,705 L 631,706 L 632,705 L 638,705 L 639,706 L 640,705 L 646,705 L 647,706 L 648,705 L 654,705 L 655,706 L 656,706 L 657,705 L 661,705 L 662,706 L 664,706 L 665,705 L 670,705 L 671,706 L 672,705 L 674,705 L 675,706 L 676,705 L 677,705 L 678,706 L 681,706 L 682,705 L 686,705 L 687,706 L 689,706 L 690,705 L 693,705 L 694,706 L 695,705 L 702,705 L 703,706 L 704,706 L 705,705 L 726,705 L 727,706 L 728,706 L 729,705 L 733,705 L 734,706 L 735,706 L 736,705 L 737,706 L 738,705 L 739,706 L 740,706 L 741,705 L 742,706 L 743,705 L 744,706 L 744,705 L 743,704 L 743,675 L 744,674 L 743,675 L 713,675 L 712,676 L 711,675 L 704,675 L 703,676 L 701,676 L 700,675 L 664,675 L 663,676 L 661,676 L 660,675 L 654,675 L 653,674 L 653,647 L 652,646 L 650,648 L 648,648 L 647,647 L 648,646 L 648,645 L 647,646 L 645,646 L 644,647 L 643,647 L 642,646 L 641,646 L 640,647 L 639,646 L 638,646 L 637,647 L 636,646 L 637,647 L 636,648 L 632,648 L 631,647 L 632,646 L 634,646 L 627,646 L 626,647 L 625,646 L 624,646 L 623,647 L 622,647 L 621,646 L 618,646 L 619,647 L 618,648 L 616,648 L 615,647 L 616,646 L 614,646 L 614,647 L 613,648 L 612,647 L 612,646 L 608,646 L 607,647 L 606,646 L 603,646 L 602,647 L 601,646 L 600,646 L 599,647 L 598,646 L 596,646 L 595,647 L 594,647 L 592,645 L 592,639 L 591,638 L 591,632 L 592,631 L 592,616 L 593,615 L 623,615 L 623,611 L 622,610 L 623,609 L 622,608 L 623,607 L 623,605 L 622,604 L 623,603 L 623,602 L 622,601 L 623,600 L 623,588 L 622,587 L 622,585 L 623,584 L 653,584 L 653,550 L 654,549 L 656,549 L 657,550 L 680,550 L 681,551 L 682,551 L 683,550 L 685,550 L 685,549 L 686,548 L 687,548 L 686,547 L 687,546 L 686,546 L 685,547 L 684,546 L 684,532 L 685,531 L 684,530 L 684,528 L 685,527 L 684,526 L 684,512 L 685,511 L 685,509 L 684,508 L 685,507 L 685,506 L 684,505 L 685,504 L 686,504 L 684,502 L 684,496 L 685,495 L 686,496 L 685,495 L 685,490 L 686,489 L 690,489 L 691,488 L 692,489 L 714,489 L 714,488 L 713,487 L 713,429 L 714,428 L 714,427 L 716,425 L 718,425 L 719,426 L 720,425 L 745,425 L 745,423 L 744,422 L 745,421 L 744,420 L 744,419 L 743,418 L 744,417 L 744,416 L 745,415 L 745,413 L 744,414 L 743,413 L 743,408 L 744,407 L 744,400 L 743,399 L 744,398 L 746,398 L 747,399 L 747,398 L 748,397 L 752,397 L 753,398 L 754,398 L 755,397 L 756,397 L 757,398 L 756,399 L 757,398 L 758,399 L 757,398 L 758,397 L 761,397 L 762,398 L 765,398 L 766,399 L 765,398 L 766,397 L 767,397 L 769,399 L 769,398 L 770,397 L 772,399 L 772,398 L 773,397 L 774,397 L 775,396 L 776,397 L 776,367 L 777,366 L 782,366 L 783,367 L 784,366 L 789,366 L 790,367 L 791,366 L 801,366 L 802,367 L 803,366 L 805,366 L 806,367 L 806,366 L 807,365 L 806,366 L 805,365 L 805,360 L 806,359 L 807,360 L 807,363 L 807,351 L 807,358 L 806,359 L 805,358 L 805,336 L 806,335 L 807,336 L 808,335 L 837,335 L 837,305 L 838,304 L 839,304 L 840,305 L 841,305 L 842,304 L 845,304 L 846,305 L 848,305 L 849,304 L 850,305 L 860,305 L 861,304 L 862,305 L 863,305 L 864,304 L 865,305 L 868,305 L 869,304 L 870,304 L 871,303 L 871,301 L 870,300 L 871,299 L 871,298 L 870,297 L 871,296 L 871,291 L 870,291 L 869,290 L 869,289 L 871,287 L 871,286 L 870,285 L 870,277 L 871,276 L 870,275 L 872,273 L 877,273 L 878,272 L 879,272 L 880,273 L 881,272 L 882,272 L 883,273 L 884,273 L 885,272 L 886,272 L 887,273 L 887,274 L 888,273 L 895,273 L 896,274 L 897,273 L 898,273 L 899,272 L 899,256 L 899,272 L 898,273 L 897,272 L 897,253 L 898,252 L 899,253 L 899,254 L 899,252 L 898,251 L 898,245 L 899,244 L 929,244 L 930,245 L 929,244 L 930,243 L 929,242 L 929,221 L 930,220 L 929,219 L 929,213 L 930,212 L 956,212 L 957,211 L 956,210 L 957,209 L 957,192 L 957,199 L 956,200 L 955,199 L 955,184 L 956,183 L 957,184 L 957,186 L 957,184 L 956,183 L 956,182 L 955,182 L 954,183 L 953,183 L 952,182 L 951,182 L 950,183 L 949,183 L 948,182 L 947,182 L 946,183 L 944,183 L 943,182 L 940,182 L 939,183 L 938,182 L 935,182 L 934,183 L 933,183 L 932,182 L 929,182 L 928,183 L 927,182 Z" fill="red" /></svg>